<?xml version="1.0" standalone="no"?>
<!DOCTYPE svg PUBLIC "-//W3C//DTD SVG 20010904//EN"
 "http://www.w3.org/TR/2001/REC-SVG-20010904/DTD/svg10.dtd">
<svg version="1.0" xmlns="http://www.w3.org/2000/svg"
 width="512.000000pt" height="512.000000pt" viewBox="0 0 512.000000 512.000000"
 preserveAspectRatio="xMidYMid meet">

<g transform="translate(0.000000,512.000000) scale(0.100000,-0.100000)"
fill="#000000" stroke="none">
<path d="M2443 4945 c-96 -21 -187 -69 -261 -140 -82 -77 -129 -152 -158 -253
l-22 -77 -53 -16 c-30 -9 -74 -26 -99 -39 -63 -32 -165 -138 -195 -202 l-25
-53 465 -3 c256 -1 674 -1 930 0 l465 3 -25 53 c-30 64 -132 170 -195 202 -25
13 -69 30 -99 39 l-53 16 -22 77 c-29 100 -76 176 -158 253 -135 128 -315 179
-495 140z"/>
</g>
</svg>
