<svg id="Layer_1" data-name="Layer 1" xmlns="http://www.w3.org/2000/svg" viewBox="0 0 14 14"><defs><style>.cls-1{fill:none;}.cls-2{fill:#fefefe;}.cls-3{fill:#20397b;}.cls-4{fill:#0eadf4;}</style></defs><path class="cls-1" d="M5,2.09a1.32,1.32,0,0,0-.63.72h0A1.32,1.32,0,0,1,5,2.09Z"/><path class="cls-1" d="M4.37,6.34a.43.43,0,0,0-.45.44.44.44,0,1,0,.87,0A.42.42,0,0,0,4.37,6.34Z"/><path class="cls-1" d="M4.36,8.1a.44.44,0,1,0,0,.88.44.44,0,0,0,.42-.45A.43.43,0,0,0,4.36,8.1Z"/><path class="cls-1" d="M4.37,9.86a.44.44,0,0,0-.45.44.44.44,0,0,0,.43.44.43.43,0,0,0,.44-.43A.44.44,0,0,0,4.37,9.86Z"/><path class="cls-1" d="M6.15,7.22H9.63a.44.44,0,1,0,0-.88H6.15a.46.46,0,0,0-.39.18.43.43,0,0,0,0,.46A.45.45,0,0,0,6.15,7.22Z"/><path class="cls-1" d="M6.15,9H9.64a.43.43,0,0,0,.44-.44.41.41,0,0,0-.41-.44H6.1a.39.39,0,0,0-.34.19.41.41,0,0,0,0,.45A.45.45,0,0,0,6.15,9Z"/><path class="cls-1" d="M9.59,9.86H6.17a.44.44,0,0,0-.49.45.45.45,0,0,0,.49.43H9.59a.44.44,0,0,0,.49-.44A.43.43,0,0,0,9.59,9.86Z"/><path class="cls-2" d="M7.89,9.86h1.7a.43.43,0,0,1,.49.44.44.44,0,0,1-.49.44H6.17a.45.45,0,0,1-.49-.43.44.44,0,0,1,.49-.45Z"/><path class="cls-2" d="M7.88,7.22H6.15A.45.45,0,0,1,5.73,7a.43.43,0,0,1,0-.46.46.46,0,0,1,.39-.18H9.62a.44.44,0,1,1,0,.88Z"/><path class="cls-2" d="M7.88,9H6.15a.45.45,0,0,1-.42-.24.41.41,0,0,1,0-.45A.39.39,0,0,1,6.1,8.1H9.67a.41.41,0,0,1,.41.44A.43.43,0,0,1,9.64,9H7.88Z"/><path class="cls-2" d="M4.79,10.31a.43.43,0,0,1-.44.43.44.44,0,0,1-.43-.44.44.44,0,1,1,.87,0Z"/><path class="cls-2" d="M4.79,6.78a.44.44,0,1,1-.87,0,.43.43,0,0,1,.45-.44A.42.42,0,0,1,4.79,6.78Z"/><path class="cls-2" d="M4.79,8.53a.44.44,0,1,1-.87,0,.44.44,0,0,1,.44-.44A.43.43,0,0,1,4.79,8.53Z"/><path class="cls-1" d="M4.37,6.34a.43.43,0,0,0-.45.44.44.44,0,1,0,.87,0A.42.42,0,0,0,4.37,6.34Z"/><path class="cls-1" d="M4.37,9.86a.44.44,0,0,0-.45.44.44.44,0,0,0,.43.44.43.43,0,0,0,.44-.43A.44.44,0,0,0,4.37,9.86Z"/><path class="cls-1" d="M6.15,7.22H9.63a.44.44,0,1,0,0-.88H6.15a.46.46,0,0,0-.39.18.43.43,0,0,0,0,.46A.45.45,0,0,0,6.15,7.22Z"/><path class="cls-1" d="M4.43,2.82H9.51A1.34,1.34,0,0,0,8.57,2c-.07,0-.11,0-.12-.12A1.55,1.55,0,0,0,6.93.61a1.53,1.53,0,0,0-1.5,1.25A.13.13,0,0,1,5.32,2,1.52,1.52,0,0,0,5,2.09a1.32,1.32,0,0,0-.63.72h.06Z"/><path class="cls-1" d="M4.36,8.1a.44.44,0,1,0,0,.88.44.44,0,0,0,.42-.45A.43.43,0,0,0,4.36,8.1Z"/><path class="cls-1" d="M9.59,9.86H6.17a.44.44,0,0,0-.49.45.45.45,0,0,0,.49.43H9.59a.44.44,0,0,0,.49-.44A.43.43,0,0,0,9.59,9.86Z"/><path class="cls-1" d="M6.15,9H9.64a.43.43,0,0,0,.44-.44.41.41,0,0,0-.41-.44H6.1a.39.39,0,0,0-.34.19.41.41,0,0,0,0,.45A.45.45,0,0,0,6.15,9Z"/><path class="cls-1" d="M4.37,6.34a.43.43,0,0,0-.45.44.44.44,0,1,0,.87,0A.42.42,0,0,0,4.37,6.34Z"/><path class="cls-1" d="M4.48,2.58c0,.07-.07.15-.11.23h0C4.41,2.73,4.44,2.65,4.48,2.58Z"/><path class="cls-1" d="M4.37,9.86a.44.44,0,0,0-.45.44.44.44,0,0,0,.43.44.43.43,0,0,0,.44-.43A.44.44,0,0,0,4.37,9.86Z"/><path class="cls-1" d="M4.8,2.22a1.12,1.12,0,0,0-.32.36A1.12,1.12,0,0,1,4.8,2.22Z"/><path class="cls-1" d="M4.36,8.1a.44.44,0,1,0,0,.88.44.44,0,0,0,.42-.45A.43.43,0,0,0,4.36,8.1Z"/><path class="cls-1" d="M6.15,7.22H9.63a.44.44,0,1,0,0-.88H6.15a.46.46,0,0,0-.39.18.43.43,0,0,0,0,.46A.45.45,0,0,0,6.15,7.22Z"/><path class="cls-1" d="M9.59,9.86H6.17a.44.44,0,0,0-.49.45.45.45,0,0,0,.49.43H9.59a.44.44,0,0,0,.49-.44A.43.43,0,0,0,9.59,9.86Z"/><path class="cls-1" d="M6.15,9H9.64a.43.43,0,0,0,.44-.44.41.41,0,0,0-.41-.44H6.1a.39.39,0,0,0-.34.19.41.41,0,0,0,0,.45A.45.45,0,0,0,6.15,9Z"/><path class="cls-2" d="M9.58,2.81a1.33,1.33,0,0,0-1-.82c-.08,0-.11-.05-.13-.13A1.53,1.53,0,0,0,7.36.67,1.52,1.52,0,0,1,8.44,1.85.16.16,0,0,0,8.57,2a1.31,1.31,0,0,1,.94.83H4.43A2.48,2.48,0,0,0,4.4,4,1.28,1.28,0,0,0,5.64,5c.91,0,1.82,0,2.73,0A1.29,1.29,0,0,0,9.64,3.73,2.63,2.63,0,0,0,9.58,2.81Z"/><path class="cls-3" d="M9.58,2.81l-.19,0h-5a.82.82,0,0,1,.11-.23,1.21,1.21,0,0,1,.31-.36A.86.86,0,0,1,5,2.1,1.75,1.75,0,0,1,5.36,2c.07,0,.1,0,.11-.11A1.55,1.55,0,0,1,7,.62a1.65,1.65,0,0,1,.38.05A1.53,1.53,0,0,1,8.49,1.86c0,.08,0,.1.13.13A1.33,1.33,0,0,1,9.58,2.81Z"/><path class="cls-4" d="M11.85,4.07a1.31,1.31,0,0,0-1.07-1.23,4.15,4.15,0,0,0-.7,0h-.5a2.63,2.63,0,0,1,.06.92A1.29,1.29,0,0,1,8.37,5C7.46,5,6.55,5,5.64,5A1.28,1.28,0,0,1,4.4,4a2.48,2.48,0,0,1,0-1.18h-.3a7.61,7.61,0,0,0-.83,0A1.3,1.3,0,0,0,2.15,4.17V12a1.34,1.34,0,0,0,1.34,1.38h7a1.25,1.25,0,0,0,.57-.13A1.31,1.31,0,0,0,11.85,12V4.07Zm-7.5,6.67a.44.44,0,0,1,0-.88.45.45,0,0,1,.43.45A.44.44,0,0,1,4.35,10.74ZM4.37,9a.44.44,0,1,1,.43-.45A.45.45,0,0,1,4.37,9Zm0-1.76a.45.45,0,0,1-.44-.44.44.44,0,1,1,.88,0A.46.46,0,0,1,4.36,7.22ZM9.6,10.74H6.17a.46.46,0,0,1-.49-.43.45.45,0,0,1,.49-.45H9.6a.44.44,0,1,1,0,.88ZM9.64,9H6.15a.45.45,0,0,1-.42-.24.41.41,0,0,1,0-.45A.39.39,0,0,1,6.1,8.1H9.67a.43.43,0,0,1,.41.44A.43.43,0,0,1,9.64,9Zm0-1.76H6.15A.46.46,0,0,1,5.73,7a.43.43,0,0,1,0-.46.46.46,0,0,1,.4-.18H9.63a.43.43,0,0,1,.45.43A.44.44,0,0,1,9.63,7.22Z"/></svg>