<svg version="1.1" id="Layer_1" xmlns="http://www.w3.org/2000/svg" xmlns:xlink="http://www.w3.org/1999/xlink" x="0px" y="0px"
	 width="100%" viewBox="0 0 512 512" enable-background="new 0 0 512 512" xml:space="preserve">
<path fill="#000000" opacity="1.000000" stroke="none" 
	d="
M292.000000,513.000000 
	C194.690292,513.000000 97.880577,513.000000 1.035435,513.000000 
	C1.035435,342.398590 1.035435,171.797195 1.035435,1.097890 
	C171.559723,1.097890 342.119537,1.097890 512.839661,1.097890 
	C512.839661,171.666550 512.839661,342.333252 512.839661,513.000000 
	C439.463837,513.000000 365.981903,513.000000 292.000000,513.000000 
M162.985657,96.062500 
	C150.726898,96.374557 138.450729,96.376656 126.213097,97.064560 
	C102.299690,98.408806 83.153336,118.966255 83.096870,142.511871 
	C82.865479,239.003616 82.989502,335.496216 83.041862,431.988495 
	C83.043808,435.573578 83.464371,439.189148 84.022751,442.738129 
	C87.387207,464.122437 107.518227,480.960876 128.924103,480.975433 
	C215.750458,481.034424 302.576904,481.008301 389.403259,480.959747 
	C391.990112,480.958282 394.587158,480.428741 397.161621,480.030151 
	C419.552643,476.563507 436.013031,455.060425 436.008331,433.067535 
	C435.988739,341.408173 436.022583,249.748810 435.956879,158.089508 
	C435.951660,150.833328 435.979889,143.476700 434.865326,136.342850 
	C432.618805,121.963509 425.257599,110.564255 412.469482,103.218498 
	C405.800354,99.387611 398.714539,96.699356 390.712372,96.840019 
	C377.884674,97.065521 365.050140,96.900452 352.283234,96.900452 
	C355.896484,109.676941 355.793488,122.893547 354.013153,136.198914 
	C351.097382,157.990204 331.500488,175.834290 309.591217,175.952682 
	C276.261505,176.132797 242.929245,176.143051 209.599762,175.944473 
	C190.442215,175.830338 173.670181,163.090210 166.922028,145.387817 
	C162.701584,134.316391 164.086853,122.912453 164.165497,111.619041 
	C164.199524,106.729691 166.039703,101.852921 167.989319,96.991547 
	C228.687180,96.991547 289.385040,96.991547 350.725189,96.991547 
	C344.548828,80.784111 333.692841,70.849342 318.149414,66.324768 
	C314.307861,65.206520 312.862122,63.534813 311.908234,59.919735 
	C303.927948,29.675310 278.237549,12.419703 247.154434,17.469210 
	C223.380356,21.331352 208.194733,36.704903 202.014755,60.301365 
	C201.197037,63.423569 199.973907,65.194618 196.441483,66.208130 
	C180.717209,70.719681 169.297531,80.238449 162.985657,96.062500 
z"/>
<path fill="#0DADF5" opacity="1.000000" stroke="none" 
	d="
M167.059464,96.970436 
	C166.039703,101.852921 164.199524,106.729691 164.165497,111.619041 
	C164.086853,122.912453 162.701584,134.316391 166.922028,145.387817 
	C173.670181,163.090210 190.442215,175.830338 209.599762,175.944473 
	C242.929245,176.143051 276.261505,176.132797 309.591217,175.952682 
	C331.500488,175.834290 351.097382,157.990204 354.013153,136.198914 
	C355.793488,122.893547 355.896484,109.676941 352.283234,96.900452 
	C365.050140,96.900452 377.884674,97.065521 390.712372,96.840019 
	C398.714539,96.699356 405.800354,99.387611 412.469482,103.218498 
	C425.257599,110.564255 432.618805,121.963509 434.865326,136.342850 
	C435.979889,143.476700 435.951660,150.833328 435.956879,158.089508 
	C436.022583,249.748810 435.988739,341.408173 436.008331,433.067535 
	C436.013031,455.060425 419.552643,476.563507 397.161621,480.030151 
	C394.587158,480.428741 391.990112,480.958282 389.403259,480.959747 
	C302.576904,481.008301 215.750458,481.034424 128.924103,480.975433 
	C107.518227,480.960876 87.387207,464.122437 84.022751,442.738129 
	C83.464371,439.189148 83.043808,435.573578 83.041862,431.988495 
	C82.989502,335.496216 82.865479,239.003616 83.096870,142.511871 
	C83.153336,118.966255 102.299690,98.408806 126.213097,97.064560 
	C138.450729,96.376656 150.726898,96.374557 163.662064,96.375427 
	C165.245468,96.782387 166.152466,96.876411 167.059464,96.970436 
M338.499054,224.999985 
	C303.034912,224.999985 267.570770,224.980682 232.106735,225.042786 
	C229.705353,225.046997 227.304764,225.662109 224.904282,225.996475 
	C215.440659,227.314590 210.708557,235.262527 212.186508,243.185684 
	C213.416550,249.779877 217.387039,256.087036 228.457184,256.052429 
	C270.747345,255.920212 313.038147,256.002563 355.328705,255.996857 
	C363.148743,255.995789 370.361755,249.561493 370.977203,241.946442 
	C371.398956,236.727997 367.007416,227.050125 358.708282,226.074875 
	C352.350616,225.327744 345.904877,225.330658 338.499054,224.999985 
M300.500000,353.000000 
	C276.529083,353.000061 252.557999,352.947113 228.587341,353.026276 
	C219.031525,353.057800 211.924271,360.160248 211.999893,369.265167 
	C212.071762,377.920319 218.881607,383.998230 228.515427,383.999054 
	C248.324738,384.000732 268.134033,383.999451 287.943359,383.999451 
	C310.749023,383.999390 333.554871,384.045319 356.360321,383.976898 
	C365.570953,383.949249 372.624207,373.898865 370.124664,365.182404 
	C367.684662,356.673523 360.732574,353.076080 352.937439,353.030853 
	C335.792145,352.931458 318.645874,353.000000 300.500000,353.000000 
M276.500000,289.000000 
	C260.519958,289.000061 244.539490,288.930725 228.559998,289.026276 
	C219.007675,289.083374 211.916199,296.175446 211.999847,305.288849 
	C212.074768,313.450256 219.445084,319.998138 228.562424,319.998596 
	C250.368561,319.999664 272.174683,319.998657 293.980835,319.998810 
	C314.788208,319.998932 335.595795,320.050476 356.402893,319.976318 
	C365.617981,319.943481 372.596741,309.914948 370.111267,301.131256 
	C367.820862,293.037048 360.880432,288.969635 351.907166,288.985168 
	C327.104858,289.028046 302.302399,289.000000 276.500000,289.000000 
M153.070404,316.559326 
	C163.405014,323.160980 170.775574,320.050323 175.639282,313.734833 
	C180.047516,308.010803 180.354385,303.453949 176.110550,296.687469 
	C172.430099,290.819244 165.769379,288.611359 160.044373,289.850220 
	C149.240845,292.187958 143.196457,305.867340 153.070404,316.559326 
M147.999924,240.572540 
	C147.841156,246.673676 150.573151,251.119781 155.743652,254.207306 
	C162.520370,258.253967 172.507248,255.714111 176.755493,248.484375 
	C180.754807,241.678253 179.308746,234.859558 172.468735,228.766510 
	C163.474609,220.754517 148.231125,228.272308 147.999924,240.572540 
M150.024994,360.862915 
	C146.331985,369.939850 147.518265,375.095856 154.572235,381.041931 
	C160.154037,385.747040 169.644897,385.597107 176.082199,377.403198 
	C180.632462,371.611237 179.150406,361.344818 173.035706,357.022430 
	C164.735580,351.155151 158.427795,352.027161 150.024994,360.862915 
z"/>
<path fill="#1F397B" opacity="1.000000" stroke="none" 
	d="
M167.524384,96.980988 
	C166.152466,96.876411 165.245468,96.782387 164.123566,96.415588 
	C169.297531,80.238449 180.717209,70.719681 196.441483,66.208130 
	C199.973907,65.194618 201.197037,63.423569 202.014755,60.301365 
	C208.194733,36.704903 223.380356,21.331352 247.154434,17.469210 
	C278.237549,12.419703 303.927948,29.675310 311.908234,59.919735 
	C312.862122,63.534813 314.307861,65.206520 318.149414,66.324768 
	C333.692841,70.849342 344.548828,80.784111 350.725189,96.991547 
	C289.385040,96.991547 228.687180,96.991547 167.524384,96.980988 
z"/>
<path fill="#000000" opacity="1.000000" stroke="none" 
	d="
M338.998657,225.000000 
	C345.904877,225.330658 352.350616,225.327744 358.708282,226.074875 
	C367.007416,227.050125 371.398956,236.727997 370.977203,241.946442 
	C370.361755,249.561493 363.148743,255.995789 355.328705,255.996857 
	C313.038147,256.002563 270.747345,255.920212 228.457184,256.052429 
	C217.387039,256.087036 213.416550,249.779877 212.186508,243.185684 
	C210.708557,235.262527 215.440659,227.314590 224.904282,225.996475 
	C227.304764,225.662109 229.705353,225.046997 232.106735,225.042786 
	C267.570770,224.980682 303.034912,224.999985 338.998657,225.000000 
z"/>
<path fill="#000000" opacity="1.000000" stroke="none" 
	d="
M301.000000,353.000000 
	C318.645874,353.000000 335.792145,352.931458 352.937439,353.030853 
	C360.732574,353.076080 367.684662,356.673523 370.124664,365.182404 
	C372.624207,373.898865 365.570953,383.949249 356.360321,383.976898 
	C333.554871,384.045319 310.749023,383.999390 287.943359,383.999451 
	C268.134033,383.999451 248.324738,384.000732 228.515427,383.999054 
	C218.881607,383.998230 212.071762,377.920319 211.999893,369.265167 
	C211.924271,360.160248 219.031525,353.057800 228.587341,353.026276 
	C252.557999,352.947113 276.529083,353.000061 301.000000,353.000000 
z"/>
<path fill="#000000" opacity="1.000000" stroke="none" 
	d="
M277.000000,289.000000 
	C302.302399,289.000000 327.104858,289.028046 351.907166,288.985168 
	C360.880432,288.969635 367.820862,293.037048 370.111267,301.131256 
	C372.596741,309.914948 365.617981,319.943481 356.402893,319.976318 
	C335.595795,320.050476 314.788208,319.998932 293.980835,319.998810 
	C272.174683,319.998657 250.368561,319.999664 228.562424,319.998596 
	C219.445084,319.998138 212.074768,313.450256 211.999847,305.288849 
	C211.916199,296.175446 219.007675,289.083374 228.559998,289.026276 
	C244.539490,288.930725 260.519958,289.000061 277.000000,289.000000 
z"/>
<path fill="#000000" opacity="1.000000" stroke="none" 
	d="
M152.798859,316.287079 
	C143.196457,305.867340 149.240845,292.187958 160.044373,289.850220 
	C165.769379,288.611359 172.430099,290.819244 176.110550,296.687469 
	C180.354385,303.453949 180.047516,308.010803 175.639282,313.734833 
	C170.775574,320.050323 163.405014,323.160980 152.798859,316.287079 
z"/>
<path fill="#000000" opacity="1.000000" stroke="none" 
	d="
M148.000244,240.144775 
	C148.231125,228.272308 163.474609,220.754517 172.468735,228.766510 
	C179.308746,234.859558 180.754807,241.678253 176.755493,248.484375 
	C172.507248,255.714111 162.520370,258.253967 155.743652,254.207306 
	C150.573151,251.119781 147.841156,246.673676 148.000244,240.144775 
z"/>
<path fill="#000000" opacity="1.000000" stroke="none" 
	d="
M150.184753,360.511108 
	C158.427795,352.027161 164.735580,351.155151 173.035706,357.022430 
	C179.150406,361.344818 180.632462,371.611237 176.082199,377.403198 
	C169.644897,385.597107 160.154037,385.747040 154.572235,381.041931 
	C147.518265,375.095856 146.331985,369.939850 150.184753,360.511108 
z"/>
</svg>